<?xml version="1.0" encoding="utf-8"?>
<!-- Generator: Adobe Illustrator 23.0.1, SVG Export Plug-In . SVG Version: 6.00 Build 0)  -->
<svg version="1.1" id="Layer_1" xmlns="http://www.w3.org/2000/svg" xmlns:xlink="http://www.w3.org/1999/xlink" x="0px" y="0px"
	 viewBox="0 0 109.02 86.62" style="enable-background:new 0 0 109.02 86.62;" xml:space="preserve">
<style type="text/css">
	.st0{fill:#008CFF;stroke:#D6D6D6;stroke-width:0.2198;stroke-miterlimit:10;}
</style>
<g>
	<path class="st0" d="M97.71,0.11h-86.4c-6.16,0-11.2,5.04-11.2,11.2v0c0,6.16,5.04,11.2,11.2,11.2h86.4c6.16,0,11.2-5.04,11.2-11.2
		v0C108.91,5.15,103.87,0.11,97.71,0.11z"/>
	<path class="st0" d="M97.71,32.11h-86.4c-6.16,0-11.2,5.04-11.2,11.2v0c0,6.16,5.04,11.2,11.2,11.2h86.4
		c6.16,0,11.2-5.04,11.2-11.2v0C108.91,37.15,103.87,32.11,97.71,32.11z"/>
	<path class="st0" d="M97.71,64.11h-86.4c-6.16,0-11.2,5.04-11.2,11.2v0c0,6.16,5.04,11.2,11.2,11.2h86.4
		c6.16,0,11.2-5.04,11.2-11.2v0C108.91,69.15,103.87,64.11,97.71,64.11z"/>
</g>
</svg>
